<svg xmlns="http://www.w3.org/2000/svg"><defs><font id="vela_sanssemibold" horiz-adv-x="1166"><font-face units-per-em="2048" ascent="1638" descent="-410"/><glyph unicode="ﬁ" horiz-adv-x="1331" d="M61 905v201h184v71q0 171 78 249.5t249 78.5h166v-176H611q-84 0-118-35.5T459 1172v-66h279V905H459V0H245v905H61zM953 0v1106h214V0H953zm0 1287v208h214v-208H953z"/><glyph unicode="ﬂ" horiz-adv-x="1367" d="M61 905v201h184v59q0 185 77.5 262.5T585 1505h153v-176H611q-84 0-118-35.5T459 1172v-66h530v399h214V0H989v905H459V0H245v905H61z"/><glyph horiz-adv-x="0"/><glyph horiz-adv-x="1577"/><glyph horiz-adv-x="227"/><glyph horiz-adv-x="409"/><glyph horiz-adv-x="409"/><glyph horiz-adv-x="409"/><glyph unicode="!" horiz-adv-x="692" d="M246 0v208h200V0H246zm0 369v1106h200V369H246z"/><glyph unicode="&quot;" horiz-adv-x="905" d="M123 1106v369h214v-369H123zm363 0v369h214v-369H486z"/><glyph unicode="#" horiz-adv-x="1899" d="m123 416 54 204h387l71 269H249l55 202h385l104 384h209l-103-384h282l103 384h210l-103-384h386l-54-202h-387l-72-269h386l-54-204h-387L1099 1H890l109 415H718L607 1H398l111 415H123zm650 204h281l72 269H845z"/><glyph unicode="$" horiz-adv-x="1317" d="m75 423 223 34q32-131 138-208.5T690 171q144 0 237 66.5t93 169.5q0 137-185 193L457 712q-325 96-325 369 0 168 113.5 279.5T553 1497v182h214v-183q184-27 305.5-137t160.5-287l-229-39q-23 119-118 193.5T657 1302q-128 2-213.5-58.5T358 1092q0-70 53.5-115.5T588 896l272-77q383-108 383-398 0-180-124-300T785-25v-180H570v181Q370 2 238 120.5T75 423z"/><glyph unicode="%" horiz-adv-x="1844" d="M123 1137q0 98 50 182.5T309 1455q82 50 183 50 100 0 184.5-48.5T811 1322q49-83 49-185 0-100-49-185T677 817q-83-49-185-49-100 0-184.5 48.5T173 951q-50 82-50 186zm61-994 1333 1332 143-145L328 0zm124 994q0-73 55.5-128.5T492 953t128 55.5 55 128.5-55 128-128 55-128.5-55-55.5-128zm676-799q0 98 50 182.5T1170 656q84 51 183 51 100 0 184-49t135-135q49-83 49-185 0-100-49-185T1538 18q-83-49-185-49-100 0-184.5 49T1034 153q-50 82-50 185zm186 0q0-73 55-128t128-55 128 55 55 128-55 128-128 55-128-55-55-128z"/><glyph unicode="&amp;" horiz-adv-x="1356" d="M102 418q-5 250 214 379-74 75-105.5 144.5T179 1097q0 184 125 294.5T636 1502q163 0 277.5-76t155.5-211l-211-49q-23 65-80.5 99.5T634 1300q-111 0-175-54.5T395 1096q0-64 37-114.5T569 839l394-366v281h218V425q0-69-20-137l151-140L1175 0l-119 110Q912-31 641-31 396-31 250.5 92T102 418zm219 11q1-114 93-184.5T642 174q173 0 253 85L470 652q-75-27-113-84.5T321 429z"/><glyph unicode="'" horiz-adv-x="500" d="M123 1106v369h214v-369H123z"/><glyph unicode="(" horiz-adv-x="909" d="M287 651v49q0 373 173 722 86 175 205 312l159-119q-175-209-258-441t-84-498q0-533 342-939L665-382Q547-246 460.5-72T331 289q-44 182-44 362z"/><glyph unicode=")" horiz-adv-x="909" d="M85-263q342 406 342 939-1 266-84 498T85 1615l160 119q118-136 204.5-310T580 1063q43-184 43-363v-49q0-373-173-722-85-172-205-311z"/><glyph unicode="*" horiz-adv-x="932" d="m61 1133 60 183 230-90-12 249h192l-12-249 232 90 59-183-240-67 156-190-156-113-135 205-135-205-156 113 156 190z"/><glyph unicode="+" horiz-adv-x="1174" d="M123 652v172h379v377h172V824h378V652H674V273H502v379H123z"/><glyph unicode="," horiz-adv-x="594" d="M123 0v247h226V-20q0-79-25.5-134.5T256-230q-43-20-84-20-21 0-49 5l13 95q4-1 12-1 45 0 70 30.5T243-36v7q0 11-2 29H123z"/><glyph unicode="-" horiz-adv-x="860" d="M123 560v172h614V560H123z"/><glyph unicode="." horiz-adv-x="586" d="M180 0v226h227V0H180z"/><glyph unicode="/" horiz-adv-x="855" d="m123 0 393 1475h216L339 0H123z"/><glyph unicode="0" horiz-adv-x="1463" d="M143 737q0 366 155 567t433 201q279 0 434-201t155-567-155-567T731-31q-278 0-433 201T143 737zm228 0q0-268 93-416t267-148 268 148 94 416-94 416.5T731 1302q-173 0-266.5-148T371 737z"/><glyph unicode="1" horiz-adv-x="966" d="m123 1245 383 230h215V0H506v1226l-277-166z"/><glyph unicode="2" horiz-adv-x="1251" d="M102 1072q43 203 186.5 317.5T646 1504q107 0 198-27.5t160-80 107-137 37-191.5q-2-124-63-233T934 643L450 204h699V0H127v204l624 566q93 85 133 154t40 147q0 113-76.5 172T648 1302q-127 0-210.5-71.5T331 1033z"/><glyph unicode="3" horiz-adv-x="1314" d="m82 423 221 34q34-142 118-214t238-72q136 0 222.5 78.5T968 443q0 126-81 192t-232 66H495v177l374 395H165v202h969v-202L750 874q217-18 329.5-124T1192 452q0-222-149.5-352.5T655-31Q548-31 455.5-4T287 77 158 219 82 423z"/><glyph unicode="4" horiz-adv-x="1303" d="M102 271v202l487 1002h236L339 473h503v479h215V473h144V271h-144V0H842v271H102z"/><glyph unicode="5" horiz-adv-x="1314" d="m102 423 222 34q34-142 118-214t238-72q136 0 222 78.5T988 443q0 127-81 192.5T676 701H206l48 774h859v-202H457l-24-368h247q256 0 394-119t138-334q0-222-149-352.5T676-31Q569-31 476.5-4T308 77 178.5 219 102 423z"/><glyph unicode="6" horiz-adv-x="1383" d="M117 660q-8 427 132 636t437 209q220 0 358-104t187-306l-218-36q-34 127-112 186t-213 59q-349 0-359-489l-1-51q54 89 158.5 133.5T723 942q149 0 262.5-51.5t182-162T1236 459q0-157-75.5-270t-199-166.5T682-31q-283 0-421 169.5T117 660zm238-207q0-131 86.5-206.5T682 171t240.5 75.5T1009 453q0 130-86.5 205T682 733t-240.5-75T355 453z"/><glyph unicode="7" horiz-adv-x="1132" d="M82 1272v203h948v-203L438 0H202l594 1272H82z"/><glyph unicode="8" horiz-adv-x="1328" d="M123 428q0 112 66 206t167 125q-89 37-139 122t-50 190q0 206 136.5 319.5T664 1504t360-113.5 136-319.5q0-105-49.5-190T972 759q101-31 167-125.5t66-205.5q0-218-148.5-338.5T664-31Q421-31 272 89.5T123 428zm224-8q0-115 84-182t233-67 233 67 84 182q0 110-82 170t-235 60q-152 0-234.5-60T347 420zm41 654q0-94 70.5-157T664 854q136 0 206.5 63t70.5 157q0 106-76 167t-201 61-200.5-61-75.5-167z"/><glyph unicode="9" horiz-adv-x="1383" d="M146 1015q0 119 43.5 213t119 154 175.5 91 216 31q283 0 421.5-169.5T1266 813q8-427-132.5-636T696-32Q476-32 338.5 72.5T152 379l218 36q34-128 111.5-186.5T694 170q350 0 360 488l1 52q-54-89-159-134t-237-45q-111 0-203.5 30t-162 88.5-108.5 152-39 213.5zm228 6q0-130 86-205.5T700 740t240.5 75.5T1027 1021q0 131-86.5 206.5T700 1303t-240-75.5-86-206.5z"/><glyph unicode=":" horiz-adv-x="671" d="M225 0v226h227V0H225zm1 880v226h227V880H226z"/><glyph unicode=";" horiz-adv-x="676" d="M225 0v247h227V-20q0-79-26-134.5T358-230q-43-20-84-20-21 0-49 5l14 95q4-1 12-1 45 0 69.5 30.5T345-36v7q0 11-2 29H225zm0 880v226h227V880H225z"/><glyph unicode="&lt;" horiz-adv-x="1289" d="m287 645 488 489 133-134-362-355 362-355-133-133z"/><glyph unicode="=" horiz-adv-x="1536" d="M246 464v172h1044V464H246zm0 375v172h1044V839H246z"/><glyph unicode="&gt;" horiz-adv-x="1289" d="m381 290 362 355-362 355 133 134 488-489-488-488z"/><glyph unicode="?" horiz-adv-x="1314" d="M102 1052q23 116 76.5 204T308 1398t168 80.5 200 26.5q238 0 387-130t149-352q0-194-112.5-310T780 574V364H580v409h96q150 0 231 65.5t81 192.5q0 116-86 194.5T680 1304q-155 0-239-72t-117-214zM580 0v208h200V0H580z"/><glyph unicode="@" horiz-adv-x="1681" d="M164 366q0 349 207.5 560T920 1137q286 0 442-139.5T1518 602V0h-189v162q-70-98-166.5-145.5T932-31q-176 0-275.5 91.5T557 297q0 75 24 134t63.5 97.5T743 595t119 43 136 25l301 36q-23 120-120.5 183T918 945q-247 0-397.5-159T370 366q0-276 146-433t402-157q105 0 198 30.5t157 87.5l110-173q-190-148-463-148-343 0-549.5 216.5T164 366zm604-53q0-162 212-162 114 0 194.5 58.5T1283 364q22 61 22 167v8l-279-35q-135-17-196.5-62.5T768 313z"/><glyph unicode="A" horiz-adv-x="1348" d="m36 0 498 1475h281L1313 0h-227L975 333H374L263 0H36zm404 534h468l-234 700z"/><glyph unicode="B" horiz-adv-x="1274" d="M143 0v1475h536q142 0 250-41t173-129.5 65-214.5q0-130-65-213.5T948 764q104-20 185-113t81-241q0-105-39.5-185t-111-128.5T899 24 694 0H143zm216 202h335q66 0 117.5 10.5t95.5 35 67.5 71T998 432q0 63-23.5 109T909 612t-91 36.5T710 660H359V202zm0 657h344q111 0 178 50.5t67 159.5q0 204-265 204H359V859z"/><glyph unicode="C" horiz-adv-x="1496" d="M61 737q0 228 81.5 401T383 1408t376 97q250 0 419-126.5t236-349.5l-217-58q-44 158-155.5 244.5T759 1302q-226 0-348.5-153T288 737q0-260 121-412t350-152q171 0 282.5 86.5T1197 504l217-59q-67-223-236-349.5T759-31q-217 0-376 97T142.5 336 61 737z"/><glyph unicode="D" horiz-adv-x="1416" d="M143 0v1475h454q349 0 536-191t187-547-187-546.5T597 0H143zm218 202h213q521 0 521 535 0 536-521 536H361V202z"/><glyph unicode="E" horiz-adv-x="1188" d="M143 0v1475h943v-202H359V859h605V657H359V202h727V0H143z"/><glyph unicode="F" horiz-adv-x="1090" d="M143 0v1475h907v-202H359V800h564V598H359V0H143z"/><glyph unicode="G" horiz-adv-x="1491" d="M61 737q0 347 189 557t500 210q240 0 399.5-114t228.5-340l-218-39q-40 138-146.5 214.5T756 1302q-221 0-344-149.5T289 733q0-267 120.5-413.5T754 173q194 0 305.5 110T1178 594H669v202h741V0h-215v213q-52-114-175-179T734-31q-309 0-491 204.5T61 737z"/><glyph unicode="H" horiz-adv-x="1454" d="M143 0v1475h216V839h736v636h216V0h-216v637H359V0H143z"/><glyph unicode="I" horiz-adv-x="543" d="M164 0v1475h215V0H164z"/><glyph unicode="J" horiz-adv-x="998" d="m0 288 212 50q14-69 73-117.5T417 172q53 0 103.5 26t74.5 78q11 23 16.5 56.5t6 57.5.5 82v1003h217V472q0-195-50-301Q689-30 424-30q-160 0-270.5 85T0 288z"/><glyph unicode="K" horiz-adv-x="1290" d="M143 0v1475h215V783l618 692h266L590 755 1290 0h-274L358 707V0H143z"/><glyph unicode="L" horiz-adv-x="1078" d="M164 0v1475h216V202h668V0H164z"/><glyph unicode="M" horiz-adv-x="1707" d="M143 0v1475h214L854 433l494 1042h216V1h-216v1036L946 188H760l-402 849V0H143z"/><glyph unicode="N" horiz-adv-x="1446" d="M143 0v1475h216l730-1103v1103h215V0h-215L359 1103V0H143z"/><glyph unicode="O" horiz-adv-x="1516" d="M61 737q0 228 81.5 401T383 1408t376 97 375.5-97 239.5-270 81-401-81-401-239.5-270T759-31 383 66 142.5 336 61 737zm228-4q0-257 120-408 121-152 350-152t349 151.5T1228 737t-120 413-349 152-349-152Q289 997 289 733z"/><glyph unicode="P" horiz-adv-x="1285" d="M143 0v1475h570q248 0 379.5-125t131.5-348-131.5-348T713 529H358V0H143zm215 732h354q141 0 217.5 70t76.5 200q0 129-76.5 200T712 1273H358V732z"/><glyph unicode="Q" horiz-adv-x="1516" d="M61 737q0 228 81.5 401T383 1408t376 97 375.5-97 239.5-270 81-401q0-306-144-507l124-122-136-138-123 123Q1004-31 759-31q-217 0-376 97T142.5 336 61 737zm228-4q0-257 120-408 121-152 350-152 154 0 263 73L792 475l137 137 223-222q76 140 76 347 0 261-120 413t-349 152-349-152Q289 997 289 733z"/><glyph unicode="R" horiz-adv-x="1333" d="M143 0v1475h570q248 0 379.5-125t131.5-348q0-179-84.5-295T893 550L1251 0h-250L656 529H358V0H143zm215 732h354q141 0 217.5 70t76.5 200q0 129-76.5 200T712 1273H358V732z"/><glyph unicode="S" horiz-adv-x="1317" d="m75 423 223 34q34-139 135-212.5T690 171q145 0 237.5 67t92.5 172q0 135-185 190L457 712q-325 98-325 372 0 187 146 303.5T654 1504q229 0 381.5-114t197.5-318l-229-39q-24 126-117.5 197.5T652 1302q-132 0-213-59t-81-150q0-70 54-116t178-81l270-77q383-108 383-398 0-203-156-327.5T678-31Q436-31 273 92T75 423z"/><glyph unicode="T" horiz-adv-x="1143" d="M20 1273v202h1102v-202H681V0H465v1273H20z"/><glyph unicode="U" horiz-adv-x="1462" d="M143 584v891h216V591q0-208 93.5-314T731 171t278.5 106 93.5 314v884h216V584q0-294-159-454.5T731-31 302 129.5 143 584z"/><glyph unicode="V" horiz-adv-x="1297" d="M10 1475h228L648 241l413 1234h226L790 0H508z"/><glyph unicode="W" horiz-adv-x="1971" d="M28 1475h225L562 345l310 1130h226l310-1130 309 1130h227L1522 0h-227L985 1116 676 0H450z"/><glyph unicode="X" horiz-adv-x="1308" d="m20 0 503 746-489 729h262l359-547 358 547h263L786 746 1288 0h-262L655 564 284 0H20z"/><glyph unicode="Y" horiz-adv-x="1214" d="M0 1475h250l357-620 358 620h249L716 609V0H500v609z"/><glyph unicode="Z" horiz-adv-x="1342" d="M102 0v202l865 1071H102v202h1138v-202L376 202h864V0H102z"/><glyph unicode="[" horiz-adv-x="856" d="M287-438v2269h426v-193H479V-246h234v-192H287z"/><glyph unicode="\" horiz-adv-x="855" d="M123 1475h216L732 0H516z"/><glyph unicode="]" horiz-adv-x="856" d="M143-246h234v1884H143v193h426V-438H143v192z"/><glyph unicode="^" horiz-adv-x="1385" d="m216 1019 487 488 489-488-132-133-355 362-356-363z"/><glyph unicode="_" horiz-adv-x="1351" d="M0-67h1352v-172H0v172z"/><glyph unicode="`" horiz-adv-x="1070" d="M340 1997h168l145-359H485z"/><glyph unicode="a" d="M82 297q0 162 112.5 250.5T524 663l304 37q-2 126-62 185.5T583 945q-108 0-172.5-41.5T319 774l-197 52q42 151 161.5 231t301.5 80q231 0 344.5-118T1043 660V0H828v162Q714-31 457-31q-171 0-273 89T82 297zm211 16q0-162 213-162 114 0 194.5 58.5T808 364q20 53 20 167v8l-277-35q-134-16-196-62t-62-129z"/><glyph unicode="b" horiz-adv-x="1295" d="M142 0v1475h214V945q110 192 356 192 223 0 362-162.5T1213 552q0-257-139-420T712-31q-246 0-356 192V0H142zm214 552q0-175 79.5-278T671 171q154 0 234.5 102T986 552q0 175-80.5 279T671 935q-152 0-233.5-102.5T356 552z"/><glyph unicode="c" horiz-adv-x="1164" d="M82 553q0 262 145.5 423T620 1137q181 0 309.5-90.5T1099 800l-213-62q-31 92-103.5 144.5T616 935q-150 0-228.5-103T309 553t79-279 228-103q197 0 266 184l217-51q-55-162-179.5-248.5T616-31q-164 0-286 75T145 250.5 82 553z"/><glyph unicode="d" horiz-adv-x="1296" d="M82 552q0 260 139.5 422.5T584 1137q244 0 354-192v530h215V0H938v161Q828-31 584-31q-223 0-362.5 163T82 552zm227 0q0-177 81-279t235-102q156 0 234.5 102.5T938 552q0 179-80.5 281T625 935q-154 0-235-104t-81-279z"/><glyph unicode="e" horiz-adv-x="1221" d="M82 553q0 263 149.5 423.5T624 1137q257-1 393-173 121-153 121-406 0-32-2-65H312q14-154 97-239t217-85q202 0 284 176l211-64q-65-149-194-230.5T626-31q-245 0-394.5 161T82 553zm235 106h598q-11 136-87 210.5T624 944q-126 0-205.5-74.5T317 659z"/><glyph unicode="f" horiz-adv-x="758" d="M61 905v201h184v71q0 171 78 249.5t249 78.5h166v-176H611q-84 0-118-35.5T459 1172v-66h279V905H459V0H245v905H61z"/><glyph unicode="g" horiz-adv-x="1296" d="M82 572q0 256 140.5 410.5T584 1137q244 0 355-185v154h214V58q0-259-141-419.5T618-522q-180 0-311 87T122-187l218 51q33-90 104.5-137.5T618-321q154 0 237.5 103.5T939 61v133Q829 10 584 10q-221 0-361.5 154T82 572zm227 0q0-168 84.5-264T625 212q149 0 231.5 97T939 572q0 169-84 266t-230 97q-147 0-231.5-98.5T309 572z"/><glyph unicode="h" horiz-adv-x="1255" d="M142 0v1475h214V953q97 184 335 184 205 0 323.5-122T1133 650V0H919v608q0 160-73.5 243.5T639 935t-208-83.5T356 608V0H142z"/><glyph unicode="i" horiz-adv-x="541" d="M164 0v1106h214V0H164zm0 1287v208h214v-208H164z"/><glyph unicode="j" horiz-adv-x="564" d="M-20-290h67q82 0 117.5 35.5T200-137v1243h215V-191q0-143-76-221t-224-78H-20v200zm220 1577v208h215v-208H200z"/><glyph unicode="k" horiz-adv-x="1069" d="M142 0v1475h214V573l435 533h272L604 553 1110 0H819L356 532V0H142z"/><glyph unicode="l" horiz-adv-x="541" d="M164 0v1505h214V0H164z"/><glyph unicode="m" horiz-adv-x="1806" d="M142 0v1106h214V972q87 165 276 165 251 0 339-185 47 86 126.5 135.5T1283 1137q196 0 298-109t102-327V0h-214v659q0 137-57.5 206.5T1246 935q-109 0-167-69.5T1021 659l-1 1V0H805v659q0 137-57.5 206.5T582 935t-167-69.5T356 659V0H142z"/><glyph unicode="n" horiz-adv-x="1255" d="M142 0v1106h214V953q98 184 335 184 206 0 324-122t118-365V0H919v608q0 160-73.5 243.5T639 935t-208-83.5T356 608V0H142z"/><glyph unicode="o" horiz-adv-x="1248" d="M82 554q0 260 148.5 421.5T624 1137q246 0 394-161.5T1166 554q0-262-148-423.5T624-31 230 131 82 554zm227 0q0-180 82-281.5T624 171q152 0 233.5 102T939 554q0 180-81.5 280.5T624 935q-153 0-234-100.5T309 554z"/><glyph unicode="p" horiz-adv-x="1296" d="M143-492v1598h214V945q110 192 356 192 223 0 362-163t139-420q0-260-139-422.5T713-31q-246 0-356 192v-653H143zM357 554q0-178 81.5-280.5T672 171q154 0 234.5 104T987 554q0 177-80.5 279T672 935q-156 0-235.5-103T357 554z"/><glyph unicode="q" horiz-adv-x="1296" d="M82 554q0 257 139.5 420T584 1137q245 0 355-192v161h214V-492H939v653Q829-31 584-31q-223 0-362.5 162.5T82 554zm227 0q0-175 81-279t235-104q152 0 233 102.5T939 554q0 176-79 278.5T625 935q-154 0-235-102t-81-279z"/><glyph unicode="r" horiz-adv-x="789" d="M142 0v1106h214V953q97 184 335 184 17 0 47-2V928q-39 7-99 7-133 0-208-83.5T356 608V0H142z"/><glyph unicode="s" horiz-adv-x="1097" d="m82 310 220 35q48-186 270-186 103 0 163.5 40T796 310q0 43-22 70t-82 50q-70 24-187 56-97 25-163.5 51T222 600.5 143.5 689 118 808q0 148 119 238.5t313 90.5q188 0 312.5-88T1009 812l-219-40q-11 82-77.5 129.5T543 949q-91 0-151-37.5T332 816q0-22 11-41t25-30.5 44-24.5 48.5-19.5T518 682q95-27 208-61 155-46 222-116.5t67-185.5q0-163-119.5-256T568-30q-202 0-327 87.5T82 310z"/><glyph unicode="t" horiz-adv-x="865" d="M20 905v201h212v369h215v-369h329V905H447V347q0-82 35.5-118T600 193h176V0H553Q402 0 317 79.5T232 299v606H20z"/><glyph unicode="u" horiz-adv-x="1256" d="M123 456v650h215V498q0-161 72.5-244T616 171t208 83.5T899 498v608h215V0H899v153Q802-31 565-31 359-31 241 91T123 456z"/><glyph unicode="v" horiz-adv-x="1101" d="M41 1106h216l294-839 294 839h216L659 0H442z"/><glyph unicode="w" horiz-adv-x="1625" d="M41 1106h216l231-804 232 804h184l232-804 232 804h216L1244 0h-217L812 765 597 0H380z"/><glyph unicode="x" horiz-adv-x="1116" d="m20 0 414 559-404 547h254l275-380 272 380h254L681 559 1096 0H841L559 392 275 0H20z"/><glyph unicode="y" horiz-adv-x="1123" d="M28 1106h223l328-831 311 831h217L497-492H293L475 5z"/><glyph unicode="z" horiz-adv-x="1070" d="M41 0v201l673 704H41v201h947V905L314 201h674V0H41z"/><glyph unicode="{" horiz-adv-x="899" d="M286 697q0 31 18 57l89 126q15 25 15 47v632q0 123 75 197.5t197 74.5h134v-204H694q-34 0-58.5-24t-24.5-58V927q0-91-52-164l-48-67 48-66q52-73 52-164v-619q0-35 24.5-59.5T694-237h120v-201H680q-123 0-197.5 74T408-167v633q0 24-15 47l-89 126q-18 27-18 58z"/><glyph unicode="|" horiz-adv-x="582" d="M184 0v1475h214V0H184z"/><glyph unicode="}" horiz-adv-x="899" d="M85-237h120q34 0 58.5 24.5T288-153v619q0 91 52 164l48 66-48 67q-52 73-52 164v618q0 34-24.5 58t-58.5 24H85v204h134q123 0 198-74.5t75-197.5V927q0-24 14-47l89-126q18-26 18-57t-18-58l-89-126q-14-22-14-47v-633q0-123-75-197t-198-74H85v201z"/><glyph unicode="~" horiz-adv-x="1429" d="M229 590q0 36 14 100 14 62 75 112 62 50 163 50 82 0 175-52 37-21 95-59 71-45 106.5-61.5T925 663q29 0 48 19.5t22 44.5q2 30 2 33 0 27-9 60h197q15-63 15-118 0-42-13-101-13-61-76-112t-164-51q-82 0-174 54-45 24-94 56-67 44-104.5 61.5T505 627q-29 0-48.5-20.5T434 562q-2-28-2-30 0-27 9-60H245q-16 67-16 118z"/><glyph unicode="¡" horiz-adv-x="705" d="M246-369V737h200V-369H246zm0 1267v208h200V898H246z"/><glyph unicode="¢" horiz-adv-x="1164" d="M82 707q1 157 56 282t158 201q105 78 244 94v191h172v-192q147-23 249-109.5T1099 953l-213-61q-31 92-104 144.5T616 1089q-151 0-228-104-78-104-79-278 2-177 81-279.5T616 325q198 0 266 184l217-51q-49-139-147.5-222.5T712 130V-60H540v188q-142 18-245 95T137 426Q84 549 82 707z"/><glyph unicode="£" horiz-adv-x="1315" d="M75 0v202h105q80 56 94.5 151.5T242 603l-6 22H80v201h93q-33 124-33 217 0 218 140 339.5T677 1504q222 0 372-115.5t192-316.5l-229-39q-23 126-117.5 197.5T671 1302q-62 0-115-14t-96.5-43.5-68-80T367 1047q0-103 35-221h569V625H463l1-1q81-276-9-422h742V0H75z"/><glyph unicode="¤" horiz-adv-x="1352" d="m61 266 171 171q-7 11-19 33-73 125-73 269t73 269q12 20 18 29L61 1207l144 145 170-170 34 21q125 73 268 73 144 0 269-73 4-3 15.5-9.5T979 1183l169 169 143-145-169-169q10-14 21-30 72-123 72-269t-72-269l-22-34 170-170-143-143-170 170q-16-12-32-20-123-72-269-72-145 0-268 72-9 5-32 21L205 123zm264 471q0-94 46.5-174.5T500 433q81-48 177-48 95 0 176 47.5T982 562q47 79 47 175 0 95-47.5 177T852 1043q-81 48-175 48-95 0-176.5-47.5T372 914q-47-79-47-177z"/><glyph unicode="¥" horiz-adv-x="1214" d="M0 1475h250l357-620 358 620h249L772 706h245V534H716V384h301V212H716V0H499v212H198v172h301v150H198v172h245z"/><glyph unicode="¦" horiz-adv-x="582" d="M184-385v808h214v-808H184zm0 1052v808h214V667H184z"/><glyph unicode="§" horiz-adv-x="1097" d="M97 525q0 94 58 161 55 64 138 92-1 1-3 1-166 77-166 244 0 105 56.5 181.5T333 1319q92 36 194 36 108 0 200.5-39T881 1204q59-73 73-174l-219-40q-17 90-74 134t-142 44q-77 0-128.5-35.5T339 1038q0-70 94-110 52-20 121-37 6-1 94-25 139-38 215-75.5T980 697q42-60 42-150 0-102-49-170-43-58-108-86 55-34 87-80 42-60 42-155 0-164-119-258t-308-94q-180 0-303.5 86.5T110 44l219 34q21-90 91.5-138T581-108q82 0 137.5 40.5T774 46q0 45-26.5 73.5T666 168q-71 24-171 49l-18 5q-137 36-216 74t-121 93q-43 55-43 136zm214 29q0-73 96-111 64-23 124-39 1 0 11-2.5t32.5-8T621 382q11-3 31.5-9t25.5-7q18 7 31 15 42 23 67.5 62t25.5 87q0 45-26.5 73.5T693 652q-60 22-172 50l-16 5q-18 4-26 7-75-26-117-61-51-42-51-99z"/><glyph unicode="¨" horiz-adv-x="1108" d="M246 1660v205h205v-205H246zm412 0v205h205v-205H658z"/><glyph unicode="©" horiz-adv-x="1758" d="M61 719q0 221 111 410 109 187 298 298 188 110 410 110 221 0 409-110 187-111 298-298 110-190 110-410 0-222-110-410-111-189-298-298Q1103-99 880-99 656-99 470 11 281 120 172 309 61 496 61 719zm203 1q0-167 83-309 82-143 223-224 142-83 310-83 165 0 307 83 140 80 224 224 82 143 82 309 0 164-82 307-83 141-224 224-143 82-307 82-167 0-310-82-142-83-223-224-83-142-83-307zm228 0q2 180 97 299 115 136 312 136 116 0 204-54 115-67 149-202l-167-46q-20 62-74 104-50 40-121 40-104 0-168-81-53-68-53-195 0-121 53-198 57-80 170-80 76 0 123 37 41 33 67 98l170-39q-40-121-132-188-90-67-229-67-101 0-174.5 32.5T589 419q-97 122-97 301z"/><glyph unicode="ª" horiz-adv-x="651" d="M80 718q0 159 217 184l149 19q-3 106-113 106-96 0-121-78L99 980q22 73 81 114.5t154 41.5q160 0 212-104 21-43 21-125V567H460v75q-71-90-194-90-84 0-135 45.5T80 718zm121 10q0-74 94-74 50 0 87 24.5t51 63.5q12 32 12 83v6l-130-16q-114-13-114-87z"/><glyph unicode="«" d="m164 554 358 451 118-94-285-357 285-358-118-94zm396 0 359 451 117-94-285-357 285-358-117-94z"/><glyph unicode="¬" horiz-adv-x="1228" d="M123 632v172h983V387H934v245H123z"/><glyph unicode="­" horiz-adv-x="860" d="M123 560v172h614V560H123z"/><glyph unicode="®" horiz-adv-x="1320" d="M143 1086q0 140 70 260 68 117 188 187t259 70q140 0 260-70t188-187q70-120 70-260 0-139-70-259-69-119-188-188-119-71-260-71-140 0-259 71-119 69-188 188-70 120-70 259zm149 0q0-99 49-183.5T476 768q82-50 186-50 98 0 183 49.5T980 903q50 82 50 183 0 100-49 185t-135 135q-83 49-184 49-100 0-185-48.5T342 1272q-50-82-50-186zm200-239v482h205q71 0 116-44.5t48-114.5q0-44-23-81.5t-63-59.5l90-182H753l-80 167h-82V847h-99zm99 254h95q32 0 52.5 18.5T759 1170q0 70-73 70h-95v-139z"/><glyph unicode="¯" horiz-adv-x="1027" d="M246 1720v171h535v-171H246z"/><glyph unicode="°" horiz-adv-x="921" d="M61 1137q0 98 50.5 182.5T248 1455q82 50 182 50t185-48.5T750 1322q49-83 49-185 0-100-49.5-185T615 817q-83-49-185-49-100 0-184 48.5T112 951q-51 84-51 186zm186 0q0-73 55-128.5T430 953t128 55.5 55 128.5-55 128-128 55-128-55-55-128z"/><glyph unicode="±" horiz-adv-x="1228" d="M123 142v172h983V142H123zm0 551v172h406v241h172V865h405V693H701V451H529v242H123z"/><glyph unicode="²" horiz-adv-x="867" d="M102 1225q28 128 118.5 199t224.5 71q142 0 231.5-70.5T764 1218q-3-144-137-266L333 689h431V553H118v136l389 350q57 51 81 92t24 89q0 69-46 104.5T446 1360q-76 0-126-43t-64-119z"/><glyph unicode="³" horiz-adv-x="906" d="m82 819 149 23q19-87 70.5-131T447 667q82 0 134 47t52 115q0 76-49.5 116T444 985H341v117l228 237H133v136h613v-136l-234-240q271-25 271-264 0-140-94-222t-245-82q-139 0-236 71T82 819z"/><glyph unicode="´" horiz-adv-x="1070" d="m416 1638 146 359h168l-146-359H416z"/><glyph unicode="µ" horiz-adv-x="1278" d="M142-492v1598h216V467q7-146 79.5-221T637 171q133 0 208 83.5T920 498v608h216V0H920v153Q823-31 585-31q-130 0-227 49v-510H142z"/><glyph unicode="¶" horiz-adv-x="1410" d="M116 1002q0 186 96 312t274 152q65 9 113 9h309V-289H694v818h-95q-48 0-113 9-177 27-273.5 152.5T116 1002zm963-1291v1764h214V-289h-214z"/><glyph unicode="·" horiz-adv-x="519" d="M123 645q0 58 40.5 97t99.5 39q55 0 94-39.5t39-96.5-39-96.5-94-39.5q-59 0-99.5 39T123 645z"/><glyph unicode="¸" horiz-adv-x="835" d="m246-458 49 131q47-14 71-14 31 0 50 18.5t19 44.5q0 46-58 70-35 14-68 25-2 0-8 2l74 209 136 2-44-127q124-60 124-187 0-89-61-149.5T384-494q-69 0-138 36z"/><glyph unicode="¹" horiz-adv-x="756" d="m123 1328 244 147h144V553H367v755l-172-104z"/><glyph unicode="º" horiz-adv-x="714" d="M82 845q0 129 76.5 210.5T357 1137q123 0 199.5-82T633 845q0-129-76.5-210.5T357 553t-199 82-76 210zm131 0q0-83 37-129.5T357 669q69 0 107.5 47.5T503 845q0 84-38 130t-108 46q-71 0-107.5-46T213 845z"/><glyph unicode="»" d="m130 196 286 358-286 357 118 94 358-451-358-452zm396 0 285 358-285 357 118 94 358-451-358-452z"/><glyph unicode="¼" horiz-adv-x="2077" d="m52 1328 244 147h145V553H296v755l-172-104zM357 98l1032 1386 130-99L487 0zm788 69v134l299 621h159l-300-621h295v294h146V301h90V167h-90V0h-146v167h-453z"/><glyph unicode="½" horiz-adv-x="2022" d="m52 1328 244 147h145V553H296v755l-172-104zM357 98l1032 1386 130-99L487 0zm901 574q28 128 118.5 199t225.5 71q142 0 231-70.5t87-206.5q-3-144-137-266l-294-263h431V0h-646v136l389 350q57 51 81 92t24 89q0 69-45.5 104.5T1603 807q-76 0-126.5-43T1412 645z"/><glyph unicode="¾" horiz-adv-x="2071" d="m72 819 149 23q19-87 70.5-131T437 667q82 0 134 47t52 115q0 76-49.5 116T434 985H331v117l228 237H123v136h613v-136l-234-240q271-25 271-264 0-140-94-222t-245-82q-139 0-236 71T72 819zM486 98l1032 1386 130-99L616 0zm779 69v134l299 621h158l-300-621h296v294h146V301h90V167h-90V0h-146v167h-453z"/><glyph unicode="¿" horiz-adv-x="1314" d="M102 83q0 194 113 309.5T535 531v211h200V333h-96q-150 0-231-65.5T327 75q0-116 86-194.5T635-198q155 0 239 72T991 88l221-34q-31-154-114.5-257.5T899-353t-260-46q-239 0-388 130T102 83zm433 815v208h200V898H535z"/><glyph unicode="À" horiz-adv-x="1348" d="m36 0 498 1475h281L1313 0h-228L975 333H374L262 0H36zm387 1997h168l146-359H569zm17-1463h468l-233 700z"/><glyph unicode="Á" horiz-adv-x="1348" d="m36 0 498 1475h281L1313 0h-227L975 333H374L263 0H36zm404 534h468l-234 700zm171 1104 147 359h168l-147-359H611z"/><glyph unicode="Â" horiz-adv-x="1348" d="m36 0 498 1475h281L1313 0h-227L975 333H374L263 0H36zm279 1638 266 308h184l264-308H824l-151 182-153-182H315zM440 534h468l-234 700z"/><glyph unicode="Ã" horiz-adv-x="1348" d="m36 0 498 1475h281L1313 0h-227L975 333H374L263 0H36zm295 1800q0 28 9 73 9 43 54 79t115 36q43 0 84.5-18.5T700 1909q85-56 123-56 32 0 43 25 10 27 10 44t-7 43h140q10-43 10-83 0-28-9-73-9-43-54-79t-116-36q-42 0-83.5 18T649 1772q-85 56-123 56-18 0-29.5-8.5t-16-22.5-5.5-22-1-15q0-20 6-43H341q-10 43-10 83zM440 534h468l-234 700z"/><glyph unicode="Ä" horiz-adv-x="1348" d="m36 0 498 1475h281L1313 0h-227L975 333H374L263 0H36zm331 1660v205h204v-205H367zm73-1126h468l-234 700zm339 1126v205h205v-205H779z"/><glyph unicode="Å" horiz-adv-x="1348" d="m36 0 498 1475h281L1313 0h-227L975 333H374L263 0H36zm389 1841q0 102 74 176.5t176 74.5q103 0 177-74.5t74-176.5q0-67-33.5-125t-91.5-92q-56-34-126-34-67 0-124.5 33.5T459 1716q-34 56-34 125zm15-1307h468l-234 700zm122 1307q0-46 33.5-79t79.5-33 79 33 33 79q0 47-33 80t-79 33-79.5-33.5T562 1841z"/><glyph unicode="Æ" horiz-adv-x="1909" d="m36 0 498 1475h1273v-202h-728V859h605V657h-605V202h728V0H863v333H374L263 0H36zm404 534h423v739H687z"/><glyph unicode="Ç" horiz-adv-x="1496" d="M61 737q0 228 81.5 401T383 1408t376 97q250 0 419-126.5t236-349.5l-217-58q-44 158-155.5 244.5T759 1302q-226 0-348.5-153T288 737q0-260 121-412t350-152q171 0 282.5 86.5T1197 504l217-59q-62-206-212.5-330.5T829-28l-23-69q124-60 124-187 0-89-61-149.5T722-494q-68 0-137 36l49 131q45-14 69-14 31 0 51 18.5t20 44.5q0 45-58 70-35 15-69 25-1 0-7 2l53 152Q396-7 228.5 200.5T61 737z"/><glyph unicode="È" horiz-adv-x="1188" d="M143 0v1475h943v-202H358V859h606V657H358V202h728V0H143zm267 1997h168l146-359H556z"/><glyph unicode="É" horiz-adv-x="1188" d="M143 0v1475h943v-202H359V859h605V657H359V202h727V0H143zm415 1638 147 359h167l-146-359H558z"/><glyph unicode="Ê" horiz-adv-x="1188" d="M143 0v1475h943v-202H359V859h605V657H359V202h727V0H143zm103 1638 265 308h184l264-308H755l-152 182-152-182H246z"/><glyph unicode="Ë" horiz-adv-x="1188" d="M143 0v1475h943v-202H358V859h606V657H358V202h728V0H143zm152 1660v205h205v-205H295zm413 0v205h204v-205H708z"/><glyph unicode="Ì" horiz-adv-x="542" d="M38 1997h168l145-359H183zM163 0v1475h216V0H163z"/><glyph unicode="Í" horiz-adv-x="542" d="M164 0v1475h216V0H164zm27 1638 146 359h168l-146-359H191z"/><glyph unicode="Î" horiz-adv-x="541" d="m-89 1638 265 308h184l266-308H421l-153 182-152-182H-89zM163 0v1475h216V0H163z"/><glyph unicode="Ï" horiz-adv-x="541" d="M-38 1660v205h205v-205H-38zM163 0v1475h216V0H163zm212 1660v205h205v-205H375z"/><glyph unicode="Ð" horiz-adv-x="1420" d="M20 652v172h122v651h453q350 0 537-191t187-547-187-546.5T595 0H142v652H20zm339-448h212q262 0 391.5 132.5T1092 737q0 269-129.5 401.5T571 1271H359V824h337V652H359V204z"/><glyph unicode="Ñ" horiz-adv-x="1446" d="M143 0v1475h216l730-1097v1097h215V0h-215L359 1097V0H143zm260 1750q0 22 10 72 9 43 54 79 44 35 116 35 43 0 84.5-18t105.5-60q50-32 75.5-44t47.5-12q32 0 43 25 10 21 10 44 0 22-7 43h139q11-47 11-83 0-23-10-73-9-45-53-80-45-36-117-36-42 0-83 18t-106 60q-52 33-76.5 45t-47.5 12-36-17-14.5-28.5-1.5-21.5q0-23 7-44H415q-12 51-12 84z"/><glyph unicode="Ò" horiz-adv-x="1516" d="M61 737q0 228 81.5 401T383 1408t376 97 375.5-97 239.5-270 81-401-81-401-239.5-270T759-31 383 66 142.5 336 61 737zm228 0q-1-260 120-412t350-152 349 151.5T1228 737t-120 413-349 152-349-152-121-413zm223 1260h168l146-359H658z"/><glyph unicode="Ó" horiz-adv-x="1516" d="M61 737q0 228 81.5 401T383 1408t376 97 375.5-97 239.5-270 81-401-81-401-239.5-270T759-31 383 66 142.5 336 61 737zm228 0q-1-260 120-412t350-152 349 151.5T1228 737t-120 413-349 152-349-152-121-413zm398 901 147 359h167l-146-359H687z"/><glyph unicode="Ô" horiz-adv-x="1516" d="M61 737q0 228 81.5 401T383 1408t376 97 375.5-97 239.5-270 81-401-81-401-239.5-270T759-31 383 66 142.5 336 61 737zm228 0q-1-260 120-412t350-152 349 151.5T1228 737t-120 413-349 152-349-152-121-413zm109 901 266 308h184l265-308H908l-152 182-153-182H398z"/><glyph unicode="Õ" horiz-adv-x="1516" d="M61 737q0 228 81.5 401T383 1408t376 97 375.5-97 239.5-270 81-401-81-401-239.5-270T759-31 383 66 142.5 336 61 737zm228 0q-1-260 120-412t350-152 349 151.5T1228 737t-120 413-349 152-349-152-121-413zm139 1012q0 28 9 73 9 42 55 79 44 35 114 35 44 0 86.5-18t105.5-60q85-56 123-56 32 0 43 25 9 24 9 44 0 21-6 43h139q10-43 10-83 0-28-9-73t-53-80q-45-36-117-36-42 0-83.5 18T746 1720q-49 32-74 44.5t-48 12.5-36-16.5-15-28.5-2-23q0-17 7-43H438q-10 43-10 83z"/><glyph unicode="Ö" horiz-adv-x="1516" d="M61 737q0 228 81.5 401T383 1408t376 97 375.5-97 239.5-270 81-401-81-401-239.5-270T759-31 383 66 142.5 336 61 737zm228 0q-1-260 120-412t350-152 349 151.5T1228 737t-120 413-349 152-349-152-121-413zm161 923v205h204v-205H450zm412 0v205h205v-205H862z"/><glyph unicode="×" horiz-adv-x="1025" d="m123 470 268 268-267 267 122 121 266-267 267 267 122-121-267-267 268-268-122-122-268 268-267-268z"/><glyph unicode="Ø" horiz-adv-x="1516" d="M61 737q0 228 81.5 401T383 1408t376 97q264 0 440-142l123 136 153-136-140-155q120-193 120-471 0-228-81-401T1134.5 66 759-31Q508-31 334 99L220-27 68 110l126 139Q61 448 61 737zm228 0q0-188 61-319l709 783q-118 101-300 101-229 0-349-152T289 737zm185-476q113-88 285-88 229 0 349 151.5T1228 737q0 176-53 300z"/><glyph unicode="Ù" horiz-adv-x="1462" d="M143 584v891h216V591q0-208 93.5-314T731 171t278.5 106 93.5 314v884h216V584q0-294-159-454.5T731-31 302 129.5 143 584zm377 1413h168l147-359H667z"/><glyph unicode="Ú" horiz-adv-x="1462" d="M143 584v891h216V591q0-208 93.5-314T731 171t278.5 106 93.5 314v884h216V584q0-294-159-454.5T731-31 302 129.5 143 584zm495 1054 146 359h168l-146-359H638z"/><glyph unicode="Û" horiz-adv-x="1462" d="M143 584v891h216V591q0-208 93.5-314T731 171t278.5 106 93.5 314v884h216V584q0-294-159-454.5T731-31 302 129.5 143 584zm229 1054 264 308h184l265-308H881l-153 182-151-182H372z"/><glyph unicode="Ü" horiz-adv-x="1462" d="M143 584v891h216V591q0-208 93.5-314T731 171t278.5 106 93.5 314v884h216V584q0-294-159-454.5T731-31 302 129.5 143 584zm280 1076v205h205v-205H423zm412 0v205h204v-205H835z"/><glyph unicode="Ý" horiz-adv-x="1214" d="M0 1475h250l357-620 358 620h249L716 609V0H500v609zm513 163 146 359h168l-146-359H513z"/><glyph unicode="Þ" horiz-adv-x="1285" d="M143 0v1475h216v-266h355q248 0 379-124.5T1224 737t-131-347.5T714 265H359V0H143zm216 467h353q141 0 218 70.5t77 199.5-77 200-218 71H359V467z"/><glyph unicode="ß" horiz-adv-x="1274" d="M142 0v1086q0 86 21 154 44 130 155 197.5t267 67.5q125 0 226.5-51T971 1310q58-92 58-213 0-94-36.5-168.5T887 812q72-22 132-75t96-131q37-78 37-177 0-215-122.5-337T683-30Q563-30 495 0v210q75-29 161-29 129 0 204 65t75 186q0 122-94 188t-255 68v190q106 9 165.5 64.5T811 1094t-63.5 153-162.5 57q-70 0-122.5-29.5T385 1187q-25-59-25-158V0H142z"/><glyph unicode="à" d="M82 297q0 162 112.5 250.5T524 663l304 37q-2 126-62 185.5T583 945q-108 0-172.5-41.5T319 774l-197 52q42 151 161.5 231t301.5 80q231 0 344.5-118T1043 660V0H828v162Q714-31 457-31q-171 0-273 89T82 297zm211 16q0-162 213-162 114 0 194.5 58.5T808 364q20 53 20 167v8l-277-35q-134-16-196-62t-62-129zm75 1315h168l145-358H513z"/><glyph unicode="á" d="M82 297q0 162 112.5 250.5T524 663l304 37q-2 126-62 185.5T583 945q-108 0-172.5-41.5T319 774l-197 52q42 151 161.5 231t301.5 80q231 0 344.5-118T1043 660V0H828v162Q714-31 457-31q-171 0-273 89T82 297zm211 16q0-162 213-162 114 0 194.5 58.5T808 364q20 53 20 167v8l-277-35q-134-16-196-62t-62-129zm223 957 146 358h167l-145-358H516z"/><glyph unicode="â" d="M82 297q0 162 112.5 250.5T524 663l304 37q-2 126-62 185.5T583 945q-108 0-172.5-41.5T319 774l-197 52q42 151 161.5 231t301.5 80q231 0 344.5-118T1043 660V0H828v162Q714-31 457-31q-171 0-273 89T82 297zm159 973 264 307h184l265-307H750l-153 181-152-181H241zm52-957q0-162 213-162 114 0 194.5 58.5T808 364q20 53 20 167v8l-277-35q-134-16-196-62t-62-129z"/><glyph unicode="ã" d="M82 297q0 162 112.5 250.5T524 663l304 37q-2 126-62 185.5T583 945q-108 0-172.5-41.5T319 774l-197 52q42 151 161.5 231t301.5 80q231 0 344.5-118T1043 660V0H828v162Q714-31 457-31q-171 0-273 89T82 297zm188 1083q0 23 10 73 9 44 53 79 45 36 116 36 43 0 83.5-18t107.5-61q84-55 123-55 33 0 43 24 9 22 9 43 0 23-7 44h139q11-47 11-85 0-26-9-70-9-45-53-80-45-36-117-36-42 0-82.5 18T589 1352q-85 56-123 56-52 0-52-66 0-22 6-45H281q-11 47-11 83zm23-1067q0-162 213-162 114 0 194.5 58.5T808 364q20 53 20 167v8l-277-35q-134-16-196-62t-62-129z"/><glyph unicode="ä" d="M82 297q0 162 112.5 250.5T524 663l304 37q-2 126-62 185.5T583 945q-108 0-172.5-41.5T319 774l-197 52q42 151 161.5 231t301.5 80q231 0 344.5-118T1043 660V0H828v162Q714-31 457-31q-171 0-273 89T82 297zm211 16q0-162 213-162 114 0 194.5 58.5T808 364q20 53 20 167v8l-277-35q-134-16-196-62t-62-129zm2 978v205h205v-205H295zm413 0v205h204v-205H708z"/><glyph unicode="å" d="M82 297q0 162 112.5 250.5T524 663l304 37q-2 126-62 185.5T583 945q-108 0-172.5-41.5T319 774l-197 52q42 151 161.5 231t301.5 80q231 0 344.5-118T1043 660V0H828v162Q714-31 457-31q-171 0-273 89T82 297zm211 16q0-162 213-162 114 0 194.5 58.5T808 364q20 53 20 167v8l-277-35q-134-16-196-62t-62-129zm53 1160q0 101 75 175.5t176 74.5q67 0 125-34t92-92q34-56 34-124 0-67-33.5-125.5T723 1255q-56-33-126-33-67 0-124.5 33.5T381 1348q-35 55-35 125zm138 0q0-46 33.5-79.5T597 1360t79.5 33.5T710 1473t-33 79-80 33q-46 0-79.5-33t-33.5-79z"/><glyph unicode="æ" horiz-adv-x="1979" d="M82 297q0 162 112.5 250.5T524 663l304 37q-2 126-62 185.5T583 945q-108 0-172.5-41.5T319 774l-197 52q42 151 161.5 231t301.5 80q281 0 390-176 72 85 176 130.5t230 45.5q257 0 393-172.5T1893 493h-823q14-154 96.5-239t216.5-85q203 0 285 176l211-64q-65-149-194.5-230.5T1383-31q-153 0-272 66T922 221Q864 97 747.5 33T465-31q-172 0-277.5 89.5T82 297zm211 16q0-162 213-162 114 0 194.5 58.5T808 364q20 53 20 167v8l-277-35q-134-16-196-62t-62-129zm782 346h598q-10 136-87 210.5T1381 944q-126 0-205-74.5T1075 659z"/><glyph unicode="ç" horiz-adv-x="1164" d="M82 553q0 262 145.5 423T620 1137q181 0 309.5-90.5T1099 800l-213-62q-31 92-103.5 144.5T616 935q-150 0-228.5-103T309 553q0-177 80-279.5T616 171q197 0 266 184l217-51q-49-147-156-232T684-28l-25-69q124-60 124-187 0-89-60.5-149.5T577-494q-70 0-139 36l49 131q47-14 71-14 31 0 50.5 18.5T628-278q0 46-59 70-38 16-67 25-2 0-8 2l54 153Q331-4 206.5 154T82 553z"/><glyph unicode="è" horiz-adv-x="1221" d="M82 553q0 263 149.5 423.5T624 1137q257 0 393-172.5T1136 493H312q14-154 97-239t217-85q202 0 284 176l211-64q-65-149-194-230.5T626-31q-245 0-394.5 161T82 553zm235 106h598q-11 136-87 210.5T624 944q-126 0-205.5-74.5T317 659zm82 969h168l147-358H546z"/><glyph unicode="é" horiz-adv-x="1221" d="M82 553q0 263 149.5 423.5T624 1137q257 0 393-172.5T1136 493H312q14-154 97-239t217-85q202 0 284 176l211-64q-65-149-194-230.5T626-31q-245 0-394.5 161T82 553zm235 106h598q-11 136-87 210.5T624 944q-126 0-205.5-74.5T317 659zm244 611 147 358h168l-147-358H561z"/><glyph unicode="ê" horiz-adv-x="1221" d="M82 553q0 263 149.5 423.5T624 1137q257 0 393-172.5T1136 493H312q14-154 97-239t217-85q202 0 284 176l211-64q-65-149-194-230.5T626-31q-245 0-394.5 161T82 553zm181 717 265 307h185l265-307H773l-152 181-153-181H263zm54-611h598q-11 136-87 210.5T624 944q-126 0-205.5-74.5T317 659z"/><glyph unicode="ë" horiz-adv-x="1221" d="M82 553q0 263 149.5 423.5T624 1137q257 0 393-172.5T1136 493H312q14-154 97-239t217-85q202 0 284 176l211-64q-65-149-194-230.5T626-31q-245 0-394.5 161T82 553zm232 738v205h205v-205H314zm3-632h598q-11 136-87 210.5T624 944q-126 0-205.5-74.5T317 659zm410 632v205h205v-205H727z"/><glyph unicode="ì" horiz-adv-x="541" d="M38 1628h168l145-358H183zM164 0v1106h214V0H164z"/><glyph unicode="í" horiz-adv-x="541" d="M164 0v1106h214V0H164zm26 1270 147 358h168l-147-358H190z"/><glyph unicode="î" horiz-adv-x="541" d="m-75 1270 264 307h185l265-307H434l-152 181-152-181H-75zM164 0v1106h214V0H164z"/><glyph unicode="ï" horiz-adv-x="541" d="M-38 1291v205h205v-205H-38zM164 0v1106h214V0H164zm211 1291v205h205v-205H375z"/><glyph unicode="ð" horiz-adv-x="1211" d="M82 515q1 162 66 286.5T333 994q119 68 274 68 173 0 316-113-15 112-84 205-38 50-87 90l-108-127-124 109 88 103q-83 34-177 40l33 169q152-6 269-61l108 126 123-108-94-110q54-49 92-104 120-166 152-428 15-137 15-332 0-168-63-292.5T886 37Q767-31 612-31h-9q-154 0-272 68T148 229Q84 351 82 515zm216 1q0-169 80-261.5T607 162q145 0 225.5 94T913 517q0 165-81 258.5T607 869q-148 0-228.5-93T298 516z"/><glyph unicode="ñ" horiz-adv-x="1255" d="M142 0v1106h214V953q97 184 335 184 205 0 323.5-122T1133 650V0H919v608q0 160-73.5 243.5T639 935t-208-83.5T356 608V0H142zm144 1380q0 28 9 73 9 43 54 79t115 36q43 0 84.5-18.5T655 1489q84-55 123-55 32 0 43 24 9 24 9 44t-6 43h140q10-43 10-83 0-27-9-72-9-44-54-80t-116-36q-42 0-83.5 18T604 1352q-85 56-123 56-18 0-29.5-8.5t-16-22.5-5.5-22-1-15q0-20 6-43H296q-10 43-10 83z"/><glyph unicode="ò" horiz-adv-x="1248" d="M82 554q0 260 148.5 421.5T624 1137q246 0 394-161.5T1166 554q0-262-148-423.5T624-31 230 131 82 554zm227 0q0-180 82-281.5T624 171q152 0 233.5 102T939 554q0 180-81.5 280.5T624 935q-153 0-234-100.5T309 554zm74 1074h168l145-358H528z"/><glyph unicode="ó" horiz-adv-x="1248" d="M82 554q0 260 148.5 421.5T624 1137q246 0 394-161.5T1166 554q0-262-148-423.5T624-31 230 131 82 554zm227 0q0-180 82-281.5T624 171q152 0 233.5 102T939 554q0 180-81.5 280.5T624 935q-153 0-234-100.5T309 554zm232 716 146 358h168l-146-358H541z"/><glyph unicode="ô" horiz-adv-x="1248" d="M82 554q0 260 148.5 421.5T624 1137q246 0 394-161.5T1166 554q0-262-148-423.5T624-31 230 131 82 554zm183 716 264 307h185l265-307H774l-152 181-152-181H265zm44-716q0-180 82-281.5T624 171q152 0 233.5 102T939 554q0 180-81.5 280.5T624 935q-153 0-234-100.5T309 554z"/><glyph unicode="õ" horiz-adv-x="1248" d="M82 554q0 260 148.5 421.5T624 1137q246 0 394-161.5T1166 554q0-262-148-423.5T624-31 230 131 82 554zm199 827q0 27 9 72 9 43 54 79t116 36q42 0 84-18.5t106-60.5q49-31 74.5-43t48.5-12q33 0 43 24 10 21 10 44 0 22-7 43h139q11-47 11-83 0-22-10-72-9-45-53-80-45-36-116-36-42 0-83.5 18T600 1352q-50 32-75.5 44t-48.5 12-36-17-14.5-28.5-1.5-21.5q0-23 7-44H292q-11 47-11 84zm28-827q0-180 82-281.5T624 171q152 0 233.5 102T939 554q0 180-81.5 280.5T624 935q-153 0-234-100.5T309 554z"/><glyph unicode="ö" horiz-adv-x="1248" d="M82 554q0 260 148.5 421.5T624 1137q246 0 394-161.5T1166 554q0-262-148-423.5T624-31 230 131 82 554zm227 0q0-180 82-281.5T624 171q152 0 233.5 102T939 554q0 180-81.5 280.5T624 935q-153 0-234-100.5T309 554zm7 737v205h205v-205H316zm412 0v205h205v-205H728z"/><glyph unicode="÷" horiz-adv-x="1105" d="M123 652v172h860V652H123zm337-326v226h226V326H460zm0 615v226h226V941H460z"/><glyph unicode="ø" horiz-adv-x="1248" d="m49 123 109 108Q82 371 82 554q0 260 148.5 421.5T624 1137q194 0 334-107l98 96 143-144-109-108q76-135 76-320 0-262-148-423.5T624-31Q429-31 292 75q-68-74-99-95-14 7-42 35T89.5 79.5 49 123zm260 431q0-95 25-175l490 488q-79 68-200 68-153 0-234-100.5T309 554zm116-316q78-67 199-67 152 0 233.5 102T939 554q0 95-25 173z"/><glyph unicode="ù" horiz-adv-x="1256" d="M123 456v650h214V498q0-161 73-244t206-83 208 83.5T899 498v608h214V0H899v153Q802-31 564-31 359-31 241 91T123 456zm272 1172h168l147-358H542z"/><glyph unicode="ú" horiz-adv-x="1256" d="M123 456v650h214V498q0-161 73-244t206-83q124 0 198 73t84 213v649h215V0H898v150Q799-31 564-31 359-31 241 91T123 456zm402 814 146 358h168l-146-358H525z"/><glyph unicode="û" horiz-adv-x="1256" d="M123 456v650h214V498q0-161 73-244t206-83 208 83.5T899 498v608h214V0H899v153Q802-31 564-31 359-31 241 91T123 456zm135 814 265 307h185l264-307H767l-152 181-152-181H258z"/><glyph unicode="ü" horiz-adv-x="1256" d="M123 456v650h214V498q0-161 73-244t206-83 208 83.5T899 498v608h214V0H899v153Q802-31 564-31 359-31 241 91T123 456zm186 835v205h205v-205H309zm413 0v205h205v-205H722z"/><glyph unicode="ý" horiz-adv-x="1123" d="M28 1106h223l328-831 311 831h217L497-492H293L475 5zm458 164 147 358h168l-147-358H486z"/><glyph unicode="þ" horiz-adv-x="1295" d="M142-492v1968h214V945q110 192 356 192 223 0 362-163t139-420q0-260-139-422.5T712-31q-246 0-356 192v-653H142zM356 554q0-178 81.5-280.5T671 171q154 0 234.5 104T986 554q0 177-80.5 279T671 935q-156 0-235.5-103T356 554z"/><glyph unicode="ÿ" horiz-adv-x="1123" d="M28 1106h223l328-831 311 831h217L497-492H293L475 5zm237 185v205h205v-205H265zm413 0v205h205v-205H678z"/><glyph unicode="Œ" horiz-adv-x="2284" d="M61 737q0 228 81.5 401T383 1408t376 97q296 0 479-177v147h944v-202h-728V859h605V657h-605V202h728V0h-944v146Q1055-31 759-31q-217 0-376 97T142.5 336 61 737zm228 0q-1-260 120-412t350-152 349 151.5T1228 737t-120 413-349 152-349-152-121-413z"/><glyph unicode="œ" horiz-adv-x="2078" d="M82 554q0 260 148.5 421.5T624 1137q137 0 247-52.5T1052 935q72 97 181.5 149.5T1479 1137q258 0 394-173t119-471h-825q14-154 97-239t218-85q201 0 283 176l211-64q-64-149-193.5-230.5T1482-31q-137 0-247.5 53T1052 172Q981 75 871 22T624-31q-246 0-394 162T82 554zm227 0q0-180 82-281.5T624 171q144 0 225 92.5T938 520v67q-8 165-88.5 256.5T624 935q-153 0-234-100.5T309 554zm863 105h598q-10 136-86 210.5T1479 944q-126 0-205.5-74.5T1172 659z"/><glyph unicode="Ÿ" horiz-adv-x="1214" d="M0 1475h250l357-620 358 620h249L716 609V0H500v609zm299 185v205h205v-205H299zm413 0v205h204v-205H712z"/><glyph unicode="ˆ" horiz-adv-x="1150" d="m216 1638 264 308h185l265-308H725l-153 182-151-182H216z"/><glyph unicode="˜" horiz-adv-x="1157" d="M234 1749q0 23 10 73 9 43 54 79 44 35 115 35 43 0 85-18t106-60q85-56 123-56 32 0 43 25 9 24 9 44 0 21-6 43h139q11-47 11-83 0-23-10-73-9-45-53-80-45-36-117-36-42 0-83 18t-107 60q-49 32-74.5 44.5T430 1777q-18 0-29.5-8.5t-16-22.5-5.5-22-1-15q0-21 6-43H245q-11 47-11 83z"/><glyph horiz-adv-x="1046"/><glyph horiz-adv-x="2092"/><glyph horiz-adv-x="1046"/><glyph horiz-adv-x="2092"/><glyph horiz-adv-x="697"/><glyph horiz-adv-x="523"/><glyph horiz-adv-x="348"/><glyph horiz-adv-x="348"/><glyph horiz-adv-x="261"/><glyph horiz-adv-x="418"/><glyph horiz-adv-x="116"/><glyph unicode="‐" horiz-adv-x="860" d="M123 560v172h614V560H123z"/><glyph unicode="‑" horiz-adv-x="860" d="M123 560v172h614V560H123z"/><glyph unicode="‒" horiz-adv-x="860" d="M123 560v172h614V560H123z"/><glyph unicode="–" horiz-adv-x="1105" d="M123 560v172h860V560H123z"/><glyph unicode="—" horiz-adv-x="1597" d="M123 560v172h1352V560H123z"/><glyph unicode="‘" horiz-adv-x="539" d="M150 1207v268h226v-247H258q-2-18-2-29v-7q0-54 24.5-84.5T350 1077q8 0 12 1l14-95q-28-5-49-5-107 0-151 94-26 55-26 135z"/><glyph unicode="’" horiz-adv-x="539" d="m164 983 13 95q4-1 12-1 45 0 70 30.5t25 84.5v7q0 11-2 29H164v247h226v-268q0-79-25.5-134.5T297 997q-41-19-84-19-21 0-49 5z"/><glyph unicode="‚" horiz-adv-x="594" d="M123 0v247h226V-20q0-79-25.5-134.5T256-230q-43-20-84-20-21 0-49 5l13 95q4-1 12-1 45 0 70 30.5T243-36v7q0 11-2 29H123z"/><glyph unicode="“" horiz-adv-x="869" d="M164 988v267q0 79 26 134.5t68 75.5q43 20 83 20 21 0 49-5l-13-96q-4 1-12 1-45 0-70-30t-25-84v-7q0-11 2-29h118V988H164zm315 0v267q0 79 26 134.5t68 75.5q43 20 83 20 22 0 50-5l-14-96q-4 1-12 1-45 0-69.5-30t-24.5-84v-7q0-11 2-29h118V988H479z"/><glyph unicode="”" horiz-adv-x="869" d="m164 989 13 95q4-1 12-1 45 0 70 30.5t25 84.5v7q0 11-2 29H164v247h226v-268q0-79-25.5-134t-67.5-75q-43-20-84-20-21 0-49 5zm315 0 14 95q4-1 12-1 45 0 69.5 30.5T599 1198v7q0 11-2 29H479v247h227v-268q0-79-26-134t-68-75q-43-20-84-20-21 0-49 5z"/><glyph unicode="„" horiz-adv-x="869" d="M164 0v247h226V-20q0-79-25.5-134.5T297-230q-43-20-84-20-21 0-49 5l13 95q4-1 12-1 45 0 70 30.5T284-36v7q0 11-2 29H164zm315 0v247h227V-20q0-79-26-134.5T612-230q-43-20-84-20-21 0-49 5l14 95q4-1 12-1 45 0 69.5 30.5T599-36v7q0 11-2 29H479z"/><glyph unicode="•" horiz-adv-x="1405" d="M430 645q0 116 81.5 195T709 919q108 0 187.5-80.5T976 645q0-75-36-137.5T842 409q-61-37-133-37-76 0-140 36t-101 99q-38 61-38 138z"/><glyph unicode="…" horiz-adv-x="1400" d="M164 0v226h226V0H164zm423 0v226h226V0H587zm424 0v226h226V0h-226z"/><glyph horiz-adv-x="418"/><glyph unicode="‹" horiz-adv-x="1289" d="m287 645 488 489 133-134-362-355 362-355-133-133z"/><glyph unicode="›" horiz-adv-x="1289" d="m381 290 362 355-362 355 133 134 488-489-488-488z"/><glyph horiz-adv-x="523"/><glyph unicode="€" horiz-adv-x="1500" d="M61 468v185h139q-3 42-3 84 0 27 2 81H61v187h165q57 234 212.5 367T825 1505t381-124 211-352l-217-58q-76 331-375 331-140 0-233-76.5T457 1005h481V818H425q-2-52-2-81 0-30 2-84h513V468H457q43-143 135.5-219T825 173q301 0 375 331l217-59q-61-228-211-352T825-31 439 102 227 468H61z"/><glyph unicode="™" horiz-adv-x="1866" d="M123 1331v144h677v-144H540V707H383v624H123zm820-624v768h128l272-442 273 442h128V707h-150v471l-204-340h-93l-203 340V707H943z"/><glyph unicode="◼" horiz-adv-x="1105" d="M0 0v1106h1106V0H0z"/></font>
</defs>
</svg>
