<svg width="1337" height="438" viewBox="0 0 1337 438" fill="none" xmlns="http://www.w3.org/2000/svg">
<g clip-path="url(#clip0_166_1535)">
<path d="M474.153 267.993L476.937 316.134L395.358 284.052L392.574 235.91L474.153 267.993Z" fill="#D2CFC3"/>
<path d="M1325.27 96.0391L1328.05 144.17L676.91 316.82L674.127 268.689L1325.27 96.0391Z" fill="#DCD8C8"/>
<path d="M674.127 268.689L676.91 316.82L558.526 348.217L555.742 300.075L674.127 268.689Z" fill="#DCD8C8"/>
<path d="M555.741 300.076L558.525 348.217L476.936 316.135L474.152 267.993L555.741 300.076Z" fill="#D2CFC3"/>
<path d="M429.363 172.468L510.951 204.551L592.54 236.633L1243.67 63.9836L1325.26 96.066L674.118 268.716L555.734 300.102L474.145 268.02L392.566 235.937L-199.377 392.899L-280.966 360.816L310.978 203.865L429.363 172.468Z" fill="#E9E7DB"/>
<path d="M392.575 235.91L395.359 284.051L-196.585 441.003L-199.369 392.872L392.575 235.91Z" fill="#DCD8C8"/>
</g>
<defs>
<clipPath id="clip0_166_1535">
<rect width="1614.03" height="396.358" fill="white" transform="translate(-287 41.3438) rotate(-1.46782)"/>
</clipPath>
</defs>
</svg>
