<svg width="375" height="231" viewBox="0 0 375 231" fill="none" xmlns="http://www.w3.org/2000/svg">
<path d="M258.193 126.494L259.902 156.043L209.829 136.35L208.121 106.801L258.193 126.494Z" fill="#D2CFC3"/>
<path d="M380.937 126.921L382.645 156.464L309.981 175.735L308.272 146.186L380.937 126.921Z" fill="#DCD8C8"/>
<path d="M308.272 146.186L309.981 175.735L259.902 156.043L258.193 126.494L308.272 146.186Z" fill="#D2CFC3"/>
<path d="M230.701 67.8611L280.78 87.5532L330.859 107.245L730.521 1.27339L780.6 20.9655L380.932 126.938L308.267 146.202L258.189 126.51L208.116 106.818L-155.217 203.161L-205.296 183.469L158.037 87.132L230.701 67.8611Z" fill="#E9E7DB"/>
<path d="M208.121 106.801L209.83 136.35L-153.504 232.687L-155.212 203.144L208.121 106.801Z" fill="#DCD8C8"/>
</svg>
