<svg width="96" height="56" viewBox="0 0 96 56" fill="none" xmlns="http://www.w3.org/2000/svg">
<path d="M93.2973 43.7304L28.4627 55.9619C28.1857 56.0127 27.9086 56.0127 27.6315 55.9619L1.56167 50.0745C0.654895 49.8715 0 49.0595 0 48.0952V41.751C0 41.4211 0.176318 41.1166 0.478577 40.9897L1.5113 40.4568C1.78837 40.3045 1.98987 40.0254 1.98987 39.6955V36.904C1.98987 36.498 1.7128 36.1681 1.33498 36.0412L0.654895 35.7113C0.251883 35.5591 0 35.2038 0 34.8232V27.6162C0 26.6265 0.705271 25.7891 1.66243 25.6368L59.0665 16.019C59.268 15.9937 59.4947 15.9937 59.7214 16.019L93.524 21.5004C94.5063 21.6527 95.2116 22.5155 95.2116 23.5305L92.4157 32.6408C92.189 33.3513 92.2142 34.1126 92.4661 34.7978L94.9345 41.8017C94.9094 42.7407 94.2293 43.5527 93.2973 43.7304Z" fill="#E9E7DB"/>
<path d="M28.7266 32.762C28.7266 32.0514 29.2303 31.4678 29.9356 31.3155C30.5905 31.1886 31.0691 31.5185 31.1446 32.1276L30.3134 32.2798C30.2379 32.1276 30.1119 32.0768 29.9608 32.1022C29.7341 32.1529 29.6082 32.3306 29.6082 32.5843C29.6082 32.8381 29.7593 32.965 29.9608 32.9396C30.1371 32.9142 30.263 32.7874 30.3134 32.6097L31.1446 32.4575C31.0691 33.1173 30.5905 33.6248 29.9356 33.7517C29.2051 33.8786 28.7266 33.4725 28.7266 32.762Z" fill="black"/>
<path d="M31.4453 32.5341L31.6972 32.4834C31.7476 32.4072 31.7728 32.3057 31.7979 32.1281L31.8735 31.0115L33.8634 30.6562V32.0773L34.1656 32.0266V33.4223L33.3344 33.5746V33.0417L32.2765 33.2447V33.7776L31.4453 33.9298V32.5341ZM33.007 32.3057V31.6206L32.6543 31.6713L32.6292 32.0773C32.6292 32.2042 32.604 32.3057 32.5536 32.4072L33.007 32.3057Z" fill="black"/>
<path d="M34.5469 31.697C34.5469 30.9865 35.0506 30.4028 35.7559 30.2759C36.5367 30.1236 37.0153 30.6058 36.9649 31.4686L35.4033 31.7478C35.4537 31.9508 35.6048 32.0269 35.7811 32.0015C35.907 31.9761 36.033 31.9 36.1085 31.7985L36.9398 31.6462C36.7634 32.2045 36.3352 32.5852 35.7559 32.6867C35.0254 32.8136 34.5469 32.4076 34.5469 31.697ZM36.1085 31.1641C36.0582 30.9865 35.9322 30.9103 35.7559 30.9357C35.5796 30.9611 35.4537 31.088 35.4033 31.291L36.1085 31.1641Z" fill="black"/>
<path d="M37.2383 31.5185L37.3642 31.4931C37.4902 31.4677 37.5657 31.3916 37.5657 31.2393L37.6665 29.9705L39.6815 29.5898V31.8991L38.8 32.0514V30.6303L38.4725 30.681L38.4221 31.3155C38.3969 31.823 38.1702 32.1783 37.5909 32.2798L37.2383 32.3559V31.5185Z" fill="black"/>
<path d="M40.2383 31.1384C40.2383 30.707 40.5154 30.3771 40.9436 30.301L41.5984 30.1741V30.0472C41.5984 29.9204 41.4977 29.8696 41.3718 29.895C41.2458 29.9204 41.1702 30.0219 41.1451 30.1234L40.3138 30.2756C40.3642 29.7173 40.742 29.3621 41.3466 29.2352C42.0518 29.1083 42.4297 29.4128 42.4297 30.098V31.3922L41.8 31.5191L41.6992 31.2907C41.5229 31.5191 41.271 31.6713 40.9687 31.7221C40.5405 31.7982 40.2383 31.5698 40.2383 31.1384ZM41.2962 31.0369C41.4725 31.0116 41.5984 30.8593 41.5984 30.6563V30.6309L41.2962 30.6817C41.1702 30.707 41.0695 30.7832 41.0695 30.91C41.0695 31.0369 41.1702 31.0623 41.2962 31.0369Z" fill="black"/>
<path d="M44.4188 30.3008L43.9402 30.3769V31.1129L43.0586 31.2651V28.9558L43.9402 28.8036V29.5141L44.4188 29.438V28.7275L45.3004 28.5752V30.8591L44.4188 31.0114V30.3008Z" fill="black"/>
<path d="M45.8281 29.6161C45.8281 28.8802 46.3319 28.3219 47.0624 28.1696C47.818 28.0427 48.2966 28.4234 48.2966 29.1593C48.2966 29.8952 47.7928 30.4535 47.0624 30.6058C46.3319 30.7326 45.8281 30.352 45.8281 29.6161ZM47.0624 29.7937C47.289 29.743 47.4402 29.5653 47.4402 29.3116C47.4402 29.0578 47.289 28.9309 47.0624 28.9563C46.8357 29.007 46.6845 29.1847 46.6845 29.4384C46.6845 29.7176 46.8608 29.8445 47.0624 29.7937Z" fill="black"/>
<path d="M49.8125 27.7379L51.223 27.4842C51.6009 27.408 51.8779 27.6111 51.8779 27.9663C51.8779 28.1693 51.7772 28.3724 51.6009 28.5246C51.8276 28.6007 51.9535 28.7784 51.9535 29.0068C51.9535 29.362 51.6764 29.6919 51.2482 29.7681L49.8377 30.0218V27.7379H49.8125ZM50.8704 28.4231C50.9712 28.3977 51.0467 28.3216 51.0467 28.2201C51.0467 28.1186 50.9712 28.0678 50.8704 28.0932L50.6437 28.144V28.4739L50.8704 28.4231ZM50.8956 29.2605C50.9963 29.2352 51.0719 29.159 51.0719 29.0575C51.0719 28.956 50.9963 28.9053 50.8956 28.9053L50.6437 28.956V29.2859L50.8956 29.2605Z" fill="black"/>
<path d="M53.4375 27.0779L54.3191 26.9256V27.6362H54.3695C54.5458 27.6108 54.6213 27.5347 54.6717 27.3824L54.8229 26.8495L55.7548 26.6719L55.4777 27.6108C55.4274 27.7377 55.377 27.8646 55.3266 27.9661L55.8556 28.9558L54.848 29.1334L54.5206 28.4229L54.3443 28.4482V29.2095L53.4627 29.3618V27.0779H53.4375Z" fill="black"/>
<path d="M56.1328 28.2205C56.1328 27.7891 56.4099 27.4592 56.8381 27.383L57.493 27.2562V27.1293C57.493 27.0024 57.3922 26.9516 57.2663 26.977C57.1403 27.0024 57.0648 27.1039 57.0396 27.2054L56.2336 27.3577C56.2839 26.7994 56.6618 26.4441 57.2663 26.3172C57.9716 26.1903 58.3494 26.4949 58.3494 27.18V28.4742L57.7197 28.6011L57.6189 28.3727C57.4426 28.6011 57.1907 28.7534 56.8885 28.8041C56.4351 28.8803 56.1328 28.6519 56.1328 28.2205ZM57.1907 28.119C57.367 28.0936 57.493 27.9413 57.493 27.7383V27.7129L57.1907 27.7637C57.0648 27.7891 56.964 27.8652 56.964 27.9921C56.964 28.119 57.0648 28.1443 57.1907 28.119Z" fill="black"/>
<path d="M59.8582 28.1179V29.0568L58.9766 29.2091V26.037L59.6063 25.9101L59.6818 26.1131C59.8581 25.8847 60.11 25.7579 60.3871 25.6817C61.0168 25.5548 61.445 25.9862 61.445 26.6968C61.445 27.4073 61.0168 27.991 60.3871 28.0925C60.1856 28.194 60.0093 28.1686 59.8582 28.1179ZM60.2108 27.4073C60.4375 27.3566 60.5886 27.1789 60.5886 26.9252C60.5886 26.6714 60.4375 26.5445 60.2108 26.5699C59.9841 26.6207 59.833 26.7983 59.833 27.0521C59.833 27.3058 59.9841 27.4327 60.2108 27.4073Z" fill="black"/>
<path d="M61.8242 26.6975C61.8242 25.9869 62.328 25.4033 63.0333 25.2764C63.8141 25.1241 64.2927 25.6063 64.2423 26.4691L62.6806 26.7482C62.731 26.9513 62.8821 27.0274 63.0584 27.002C63.1844 26.9766 63.3103 26.9005 63.3859 26.799L64.2171 26.6467C64.0408 27.205 63.6126 27.5857 63.0333 27.6872C62.3028 27.8141 61.8242 27.408 61.8242 26.6975ZM63.4111 26.1646C63.3607 25.9869 63.2348 25.9108 63.0584 25.9362C62.8821 25.9616 62.7562 26.0885 62.7058 26.2915L63.4111 26.1646Z" fill="black"/>
<path d="M64.5469 26.5199L64.6728 26.4946C64.7988 26.4692 64.8743 26.3931 64.8743 26.2408L64.9751 24.972L66.9901 24.5913V26.9006L66.1085 27.0528V25.6318L65.7811 25.6825L65.7307 26.3169C65.7055 26.8245 65.4788 27.1797 64.8995 27.2812L64.5469 27.3574V26.5199Z" fill="black"/>
<path d="M67.6133 24.4641L68.4949 24.3119V24.8702V25.2254H68.5201L69.2001 24.185L69.9306 24.0581V26.3674L69.049 26.5196V25.9614V25.6061L68.3689 26.6465L67.6385 26.7734V24.4641H67.6133Z" fill="black"/>
<path d="M70.5391 23.9314L71.4207 23.7792V24.3374V24.6927H71.4458L72.1259 23.6523L72.8564 23.5254V25.8347L71.9748 25.9869V25.4286V25.0734L71.2947 26.1138L70.5643 26.2407V23.9314H70.5391Z" fill="black"/>
<path d="M28.7188 37.1017L33.5549 36.2389V41.1366L33.9831 41.0605C35.1669 40.8575 35.5448 40.5276 35.8974 39.3602L37.0309 35.6299L42.2448 34.7163L40.2298 40.6798C39.9527 41.4665 39.6505 42.1517 39.2978 42.7353L42.7486 49.181L37.2324 50.1707L34.9151 45.3999L33.6053 45.6283V50.8051L28.7691 51.6679V37.1017H28.7188Z" fill="black"/>
<path d="M43.6797 44.1862L48.2136 43.3741C48.2388 44.237 48.7677 44.643 49.6997 44.4907C50.5309 44.3385 51.1606 43.8563 51.1606 43.0696C51.1606 42.3591 50.6316 42.0038 49.7752 42.1561L47.6594 42.5367V39.0601L49.5737 38.7302C50.405 38.578 50.9087 38.0704 50.9087 37.3599C50.9087 36.6493 50.3798 36.3448 49.6241 36.4717C48.7929 36.624 48.3143 37.2076 48.2891 38.0197L43.8308 38.8063C44.0071 35.7865 46.1985 33.528 49.8004 32.8682C53.3016 32.2338 55.493 33.528 55.493 36.1672C55.493 37.5121 54.8633 38.7556 53.7802 39.6438C55.0648 39.9991 55.8456 41.1156 55.8456 42.689C55.8456 45.4043 53.6542 47.3837 49.8508 48.0688C45.9466 48.7286 43.8812 47.3837 43.6797 44.1862Z" fill="black"/>
<path d="M57.8359 31.9247L61.7653 31.2395L66.1229 36.5686L70.5056 29.6661L74.4098 28.981V43.5472L69.6744 44.3846V41.0349L69.7248 38.0404H69.6744L67.483 41.5678L64.7879 42.05L62.5965 39.2839L62.5461 39.3093L62.5965 42.3037V45.6534L57.8611 46.4909V31.9247H57.8359Z" fill="black"/>
<path d="M77.332 28.4479L82.1682 27.5851V32.4828L82.5964 32.4067C83.7802 32.2037 84.158 31.8738 84.5107 30.7064L85.6442 26.9761L90.8581 26.0625L88.8431 32.026C88.566 32.8127 88.2637 33.4979 87.9111 34.0815L91.3619 40.5272L85.8457 41.5169L83.5283 36.7461L82.2186 36.9745V42.1513L77.3824 43.0141V28.4479H77.332Z" fill="black"/>
<path d="M2.72656 46.4233L25.0685 51.4733V49.6969L2.72656 44.647V46.4233Z" fill="#E23232"/>
<path d="M2.72656 31.6284V33.4048L25.0685 38.4547V36.7291L2.72656 31.6284Z" fill="#E23232"/>
<path d="M5.70055 43.7584L9.4536 37.9471L13.3074 45.5094L14.5164 45.7885L18.2695 39.9519L22.1233 47.5142L23.962 47.9456L18.9999 38.2263L17.7909 37.9471L14.0379 43.7838L10.1841 36.2215L8.97502 35.9424L4.16406 43.4031L5.70055 43.7584Z" fill="#E23232"/>
<path d="M10 17L48 7L86 17" stroke="#C9C9C9" stroke-width="0.2" stroke-linecap="round" stroke-linejoin="round"/>
<path d="M48 4V0" stroke="#C9C9C9" stroke-width="0.2" stroke-linecap="round"/>
<circle cx="0.615593" cy="0.615593" r="0.515593" transform="matrix(-0.258819 -0.965926 -0.965926 0.258819 8.17188 18.1899)" stroke="#C9C9C9" stroke-width="0.2"/>
<path d="M5.59299 17.6057C5.2646 17.6937 5.06971 18.0313 5.1577 18.3597C5.2457 18.6881 5.58325 18.883 5.91165 18.795C6.11547 18.7404 6.26785 18.5896 6.33311 18.4046C6.40095 18.2122 6.50667 17.9982 6.70371 17.9454V17.9454" stroke="#C9C9C9" stroke-width="0.2"/>
<circle cx="88.7539" cy="17.7547" r="0.515593" transform="rotate(-75 88.7539 17.7547)" stroke="#C9C9C9" stroke-width="0.2"/>
<path d="M90.5789 17.6057C90.9073 17.6937 91.1022 18.0313 91.0142 18.3597C90.9262 18.6881 90.5886 18.883 90.2602 18.795C90.0564 18.7404 89.904 18.5896 89.8388 18.4046C89.7709 18.2122 89.6652 17.9982 89.4682 17.9454V17.9454" stroke="#C9C9C9" stroke-width="0.2"/>
</svg>
