<svg width="645" height="638" viewBox="0 0 645 638" fill="none" xmlns="http://www.w3.org/2000/svg">
<g clip-path="url(#clip0_166_1557)">
<path d="M569.979 558.252L532.992 546.012L534.96 309.034L571.942 321.275L569.979 558.252Z" fill="#D2CFC3"/>
<path d="M572.598 242.28L535.616 230.04L536.272 151.045L573.254 163.286L572.598 242.28Z" fill="#D2CFC3"/>
<path d="M342.369 15.288L305.387 3.04736L603.071 91.7666L640.059 104.007L342.369 15.288Z" fill="#D2CFC3"/>
<path d="M107.795 311.628L70.8131 299.388L535.613 230.04L572.595 242.28L107.795 311.628Z" fill="#DCD8C8"/>
<path d="M38.7744 637.508L1.79229 625.267L4.82082 259.924L41.8085 272.159L38.7744 637.508Z" fill="#DCD8C8"/>
<path d="M41.8101 272.159L4.82245 259.924L5.40008 190.8L42.3822 203.041L41.8101 272.159Z" fill="#DCD8C8"/>
<path d="M42.3808 203.041L5.39871 190.8L5.47725 180.93L42.465 193.17L42.3808 203.041Z" fill="#DCD8C8"/>
<path d="M42.463 193.171L342.368 15.2882L640.058 104.007L639.979 113.884L639.407 183.002L638.998 232.373L638.342 311.367L636.373 548.345L569.981 558.253L571.944 321.269L107.139 390.595L105.176 627.578L38.7726 637.503L41.8067 272.159L42.3788 203.041L42.463 193.171ZM573.251 163.286L341.712 94.277L108.451 232.662L107.795 311.651L572.595 242.308L573.251 163.314" fill="#E9E7DB"/>
<path d="M42.4656 193.17L5.47794 180.93L305.389 3.04734L342.371 15.2879L42.4656 193.17Z" fill="#D2CFC3"/>
</g>
<defs>
<clipPath id="clip0_166_1557">
<rect width="643" height="632" fill="white" transform="translate(-3.86328 5.87109) rotate(-0.523129)"/>
</clipPath>
</defs>
</svg>
